{"title":"August (1995) Dvrip-XviD","uid":8683897,"size":733505934,"categoryP":"video","categoryS":"movies","magnet":"?xt=urn:btih:d28dde549d65b115f2b16267c78df5ecb892cf30&amp;dn=August+%281995%29+Dvrip-XviD&amp;tr=udp%3A%2F%2Ftracker.openbittorrent.com%3A80&amp;tr=udp%3A%2F%2Fopen.demonii.com%3A1337&amp;tr=udp%3A%2F%2Ftracker.coppersurfer.tk%3A6969&amp;tr=udp%3A%2F%2Fexodus.desync.com%3A6969","seeders":0,"leechers":2,"uploader":null,"files":1,"time":1373755170,"description":"August (1995) DVDRip - XviD ( Dual Spanish- English )\n\n\nFormat                                   : AVI\nFormat/Info                              : Audio Video Interleave\nFile size                                : 700 MiB\nDuration                                 : 1h 29mn\nOverall bit rate mode                    : Variable\nOverall bit rate                         : 1 091 Kbps\n\nVideo\nID                                       : 0\nFormat                                   : MPEG-4 Visual\nFormat profile                           : Advanced Simple@L5\nFormat settings, BVOP                    : 2\nFormat settings, QPel                    : No\nFormat settings, GMC                     : No warppoints\nFormat settings, Matrix                  : Default (H.263)\nCodec ID                                 : XVID\nCodec ID/Hint                            : XviD\nDuration                                 : 1h 29mn\nBit rate                                 : 849 Kbps\nWidth                                    : 544 pixels\nHeight                                   : 288 pixels\nDisplay aspect ratio                     : 1.889\nFrame rate                               : 25.000 fps\nColor space                              : YUV\nChroma subsampling                       : 4:2:0\nBit depth                                : 8 bits\nScan type                                : Progressive\nCompression mode                         : Lossy\nBits/(Pixel*Frame)                       : 0.217\nStream size                              : 544 MiB (78%)\nWriting library                          : XviD 1.0.3 (UTC 2004-12-20)\n\nAudio #1\nID                                       : 1\nFormat                                   : MPEG Audio\nFormat version                           : Version 1\nFormat profile                           : Layer 3\nMode                                     : Joint stereo\nMode extension                           : MS Stereo\nCodec ID                                 : 55\nCodec ID/Hint                            : MP3\nDuration                                 : 1h 29mn\nBit rate mode                            : Variable\nBit rate                                 : 112 Kbps\nChannel(s)                               : 2 channels\nSampling rate                            : 44.1 KHz\nCompression mode                         : Lossy\nStream size                              : 70.2 MiB (10%)\nAlignment                                : Aligned on interleaves\nInterleave, duration                     : 26 ms (0.65 video frame)\nInterleave, preload duration             : 522 ms\nTitle                                    : Audio\nWriting library                          : LAME3.90.\nEncoding settings                        : -m j -V 4 -q 2 -lowpass 16 --abr 112\n\nAudio #2\nID                                       : 2\nFormat                                   : MPEG Audio\n","torrent":{"xt":"urn:btih:d28dde549d65b115f2b16267c78df5ecb892cf30","amp;dn":"August+%281995%29+Dvrip-XviD","amp;tr":["udp%3A%2F%2Ftracker.openbittorrent.com%3A80","udp%3A%2F%2Fopen.demonii.com%3A1337","udp%3A%2F%2Ftracker.coppersurfer.tk%3A6969","udp%3A%2F%2Fexodus.desync.com%3A6969"],"infoHash":"d28dde549d65b115f2b16267c78df5ecb892cf30","infoHashBuffer":{"type":"Buffer","data":[210,141,222,84,157,101,177,21,242,177,98,103,199,141,245,236,184,146,207,48]},"announce":[],"urlList":[]}}